<?xml version="1.0" encoding="UTF-8" standalone="no"?><!DOCTYPE svg PUBLIC "-//W3C//DTD SVG 1.1//EN" "http://www.w3.org/Graphics/SVG/1.1/DTD/svg11.dtd"><svg width="100%" height="100%" viewBox="0 0 1296 1242" version="1.1" xmlns="http://www.w3.org/2000/svg" xmlns:xlink="http://www.w3.org/1999/xlink" xml:space="preserve" xmlns:serif="http://www.serif.com/" style="fill-rule:evenodd;clip-rule:evenodd;stroke-linejoin:round;stroke-miterlimit:2;"><rect x="0" y="0" width="1295.8" height="1241.67" style="fill:#ff0e26;"/><path id="path33925" d="M964.433,410.081l-499.796,479.646l0,-295.357l499.796,-479.787l-0,295.498Zm200.564,-102.892l-653.669,627.5l153.947,147.643l499.722,-479.716l0,-295.427Zm-453.031,819.894l504.934,0l-252.467,-242.36l-252.467,242.36Z" style="fill:#fff;fill-rule:nonzero;"/><g><path id="path33929" d="M123.078,742.288l222.323,-0l-0,127.899l-45.763,45.762l-176.56,0l0,-45.762l176.56,0l0,-82.137l-176.56,0l0,-45.762Z" style="fill:#fff;fill-rule:nonzero;"/><path id="path33933" d="M168.882,533.314l-45.831,0l-0,121.688l45.693,45.762l176.629,-0l0,-167.45l-45.693,0l-0,121.688l-42.518,-0l-0,-75.925l-45.762,-45.763l-0,121.688l-42.518,-0l-0,-121.688Z" style="fill:#fff;fill-rule:nonzero;"/><path id="path33937" d="M168.882,953.367l-45.831,-0l-0,121.687l45.831,45.762l176.491,0l0,-45.762l-88.211,-0l-0,-75.925l-45.762,-45.762l-0,121.687l-42.518,-0l-0,-121.687Z" style="fill:#fff;fill-rule:nonzero;"/><path id="path33941" d="M299.666,448.527l-176.56,-0l-0,45.831l222.322,-0l0,-142.877l-45.762,-45.762l0,142.808Z" style="fill:#fff;fill-rule:nonzero;"/><path id="path33945" d="M123.078,167.949l95.321,95.39l-95.321,-0l0,124.793l27.885,27.885l0,-55.011l106.088,-0l0,-28.645l-106.088,0l0,-42.449l106.088,0l0,-26.712l-133.973,-133.973l0,38.722Z" style="fill:#fff;fill-rule:nonzero;"/></g><path id="path33951" d="M1275.87,1201.01c10.976,0 19.877,8.989 19.877,20.224c0,11.408 -8.901,20.223 -19.877,20.223c-11.063,0 -20.051,-8.815 -20.051,-20.223c0,-11.235 8.988,-20.224 20.051,-20.224m-0,3.112c-8.902,-0 -16.248,7.691 -16.248,17.112c-0,9.507 7.346,17.112 16.248,17.112c8.901,0.086 16.161,-7.605 16.161,-17.026c0,-9.507 -7.26,-17.198 -16.161,-17.198m-3.803,28.779l-3.543,0l-0,-22.47c1.814,-0.259 3.629,-0.519 6.222,-0.519c3.371,0 5.791,0.692 7.001,1.729c1.469,0.95 2.247,2.506 2.247,4.667c-0,2.938 -1.988,4.667 -4.581,5.444l0,0.087c1.988,0.518 3.371,2.16 3.803,5.531c0.605,3.457 1.123,4.84 1.383,5.531l-3.717,-0c-0.518,-0.691 -1.123,-2.766 -1.469,-5.704c-0.518,-2.852 -1.901,-3.889 -4.84,-3.889l-2.506,-0l-0,9.593Zm-0,-12.445l2.593,-0c3.025,-0 5.444,-0.951 5.444,-3.803c0,-1.987 -1.382,-3.975 -5.444,-3.975c-1.124,-0 -1.988,0.173 -2.593,0.259l-0,7.519Z" style="fill:#fff;fill-rule:nonzero;"/></svg>